<svg width="20" height="20" viewBox="0 0 20 20" fill="none" xmlns="http://www.w3.org/2000/svg">
<path fill-rule="evenodd" clip-rule="evenodd" d="M18.1036 5.91684C18.9062 5.64953 19.7389 6.23276 19.9496 7.20483C20.1603 8.17689 19.6888 9.17325 18.8761 9.45271L13.5487 11.1781L9.18449 12.5876L3.8571 14.313L2.25186 14.8355L1.47934 13.2194L0.0849602 10.2873C-0.14384 9.80621 0.102325 9.23357 0.608882 9.06856C0.916569 8.96833 1.25443 9.04444 1.48943 9.26692L3.08458 10.7771L8.07085 9.1611L4.47483 1.61843C4.17988 0.999768 4.49842 0.263026 5.15118 0.0541209C5.57811 -0.0825129 6.04545 0.0458251 6.34273 0.381337L12.7762 7.64225L18.1036 5.91684ZM1.59399 17.5697C0.922915 17.5697 0.378903 18.1137 0.378903 18.7848C0.378903 19.4559 0.922914 19.9999 1.59399 19.9999H18.1092C18.7803 19.9999 19.3243 19.4559 19.3243 18.7848C19.3243 18.1137 18.7803 17.5697 18.1092 17.5697H1.59399Z" fill="#84878B"/>
</svg>
