<svg width="63" height="14" viewBox="0 0 63 14" fill="none" xmlns="http://www.w3.org/2000/svg">
<path fill-rule="evenodd" clip-rule="evenodd" d="M7 0.000732422H56L63 7.00074L56 14.0007H7.00001L7.00001 14.0007L7 14.0007L0 7.00073L6.99999 0.000737803L7 0.000743049V0.000732422Z" fill="#EE6D52"/>
<path d="M25.5625 6.13745V7.05737H20.9453V6.13745H25.5625ZM21.1211 2.46948V11.0007H19.9902V2.46948H21.1211ZM26.5469 2.46948V11.0007H25.4219V2.46948H26.5469ZM35.125 6.46558V7.00464C35.125 7.64526 35.0449 8.21948 34.8848 8.72729C34.7246 9.23511 34.4941 9.66675 34.1934 10.0222C33.8926 10.3777 33.5312 10.6492 33.1094 10.8367C32.6914 11.0242 32.2227 11.1179 31.7031 11.1179C31.1992 11.1179 30.7363 11.0242 30.3145 10.8367C29.8965 10.6492 29.5332 10.3777 29.2246 10.0222C28.9199 9.66675 28.6836 9.23511 28.5156 8.72729C28.3477 8.21948 28.2637 7.64526 28.2637 7.00464V6.46558C28.2637 5.82495 28.3457 5.25269 28.5098 4.74878C28.6777 4.24097 28.9141 3.80933 29.2188 3.45386C29.5234 3.09448 29.8848 2.82104 30.3027 2.63354C30.7246 2.44604 31.1875 2.35229 31.6914 2.35229C32.2109 2.35229 32.6797 2.44604 33.0977 2.63354C33.5195 2.82104 33.8809 3.09448 34.1816 3.45386C34.4863 3.80933 34.7188 4.24097 34.8789 4.74878C35.043 5.25269 35.125 5.82495 35.125 6.46558ZM34.0059 7.00464V6.45386C34.0059 5.94604 33.9531 5.49683 33.8477 5.1062C33.7461 4.71558 33.5957 4.38745 33.3965 4.12183C33.1973 3.8562 32.9531 3.65503 32.6641 3.51831C32.3789 3.38159 32.0547 3.31323 31.6914 3.31323C31.3398 3.31323 31.0215 3.38159 30.7363 3.51831C30.4551 3.65503 30.2129 3.8562 30.0098 4.12183C29.8105 4.38745 29.6562 4.71558 29.5469 5.1062C29.4375 5.49683 29.3828 5.94604 29.3828 6.45386V7.00464C29.3828 7.51636 29.4375 7.96948 29.5469 8.36401C29.6562 8.75464 29.8125 9.08472 30.0156 9.35425C30.2227 9.61987 30.4668 9.82104 30.748 9.95776C31.0332 10.0945 31.3516 10.1628 31.7031 10.1628C32.0703 10.1628 32.3965 10.0945 32.6816 9.95776C32.9668 9.82104 33.207 9.61987 33.4023 9.35425C33.6016 9.08472 33.752 8.75464 33.8535 8.36401C33.9551 7.96948 34.0059 7.51636 34.0059 7.00464ZM39.9707 2.46948V11.0007H38.8574V2.46948H39.9707ZM42.7129 2.46948V3.39526H36.1211V2.46948H42.7129Z" fill="white"/>
</svg>
